# xmcd CD database file
#
# Track frame offsets:
#	150
#	27917
#	54808
#	75812
#	92842
#	115060
#	144712
#	170231
#	195131
#
# Disc length: 3026 seconds
#
# Revision: 0
# Processed by: cddbd v1.5.2PL0 Copyright (c) Steve Scherf et al.
# Submitted via: CDex 1.51
#
DISCID=650bd009
DTITLE=Ruben Blades - Metiendo mano (Willie Colon presents Ruben Blades)
DYEAR=1977
DGENRE=Salsa
TTITLE0=Pablo Pueblo
TTITLE1=Segun el color
TTITLE2=La maleta
TTITLE3=Me recordaras
TTITLE4=Plantacion adentro
TTITLE5=La mora
TTITLE6=Lluvia de tu cielo
TTITLE7=Fue varon
TTITLE8=Pueblo
EXTD=YEAR: 1977
EXTT0=
EXTT1=
EXTT2=
EXTT3=
EXTT4=
EXTT5=
EXTT6=
EXTT7=
EXTT8=
PLAYORDER=
